<svg width="1584" height="672" viewBox="0 0 1584 672" fill="none" xmlns="http://www.w3.org/2000/svg">
<rect x="1273" y="346" width="311" height="326" rx="9" fill="#B97A57"/>
<path d="M1462.67 456.625V463.938L1420.27 559H1406.56L1448.89 467.312H1393.48V456.625H1462.67Z" fill="white"/>
<rect y="346" width="246" height="326" rx="9" fill="#B97A57"/>
<path d="M134.258 456.062V559H121.25V472.305L95.0234 481.867V470.125L132.219 456.062H134.258Z" fill="white"/>
<rect x="269" y="346" width="245" height="326" rx="9" fill="#B97A57"/>
<path d="M426.586 548.312V559H359.578V549.648L393.117 512.312C397.242 507.719 400.43 503.828 402.68 500.641C404.977 497.406 406.57 494.523 407.461 491.992C408.398 489.414 408.867 486.789 408.867 484.117C408.867 480.742 408.164 477.695 406.758 474.977C405.398 472.211 403.383 470.008 400.711 468.367C398.039 466.727 394.805 465.906 391.008 465.906C386.461 465.906 382.664 466.797 379.617 468.578C376.617 470.312 374.367 472.75 372.867 475.891C371.367 479.031 370.617 482.641 370.617 486.719H357.609C357.609 480.953 358.875 475.68 361.406 470.898C363.938 466.117 367.688 462.32 372.656 459.508C377.625 456.648 383.742 455.219 391.008 455.219C397.477 455.219 403.008 456.367 407.602 458.664C412.195 460.914 415.711 464.102 418.148 468.227C420.633 472.305 421.875 477.086 421.875 482.57C421.875 485.57 421.359 488.617 420.328 491.711C419.344 494.758 417.961 497.805 416.18 500.852C414.445 503.898 412.406 506.898 410.062 509.852C407.766 512.805 405.305 515.711 402.68 518.57L375.258 548.312H426.586Z" fill="white"/>
<rect x="538" width="378" height="672" rx="9" fill="#B97A57"/>
<path d="M714.492 328.414H723.773C728.32 328.414 732.07 327.664 735.023 326.164C738.023 324.617 740.25 322.531 741.703 319.906C743.203 317.234 743.953 314.234 743.953 310.906C743.953 306.969 743.297 303.664 741.984 300.992C740.672 298.32 738.703 296.305 736.078 294.945C733.453 293.586 730.125 292.906 726.094 292.906C722.438 292.906 719.203 293.633 716.391 295.086C713.625 296.492 711.445 298.508 709.852 301.133C708.305 303.758 707.531 306.852 707.531 310.414H694.523C694.523 305.211 695.836 300.477 698.461 296.211C701.086 291.945 704.766 288.547 709.5 286.016C714.281 283.484 719.812 282.219 726.094 282.219C732.281 282.219 737.695 283.32 742.336 285.523C746.977 287.68 750.586 290.914 753.164 295.227C755.742 299.492 757.031 304.812 757.031 311.188C757.031 313.766 756.422 316.531 755.203 319.484C754.031 322.391 752.18 325.109 749.648 327.641C747.164 330.172 743.93 332.258 739.945 333.898C735.961 335.492 731.18 336.289 725.602 336.289H714.492V328.414ZM714.492 339.102V331.297H725.602C732.117 331.297 737.508 332.07 741.773 333.617C746.039 335.164 749.391 337.227 751.828 339.805C754.312 342.383 756.047 345.219 757.031 348.312C758.062 351.359 758.578 354.406 758.578 357.453C758.578 362.234 757.758 366.477 756.117 370.18C754.523 373.883 752.25 377.023 749.297 379.602C746.391 382.18 742.969 384.125 739.031 385.438C735.094 386.75 730.805 387.406 726.164 387.406C721.711 387.406 717.516 386.773 713.578 385.508C709.688 384.242 706.242 382.414 703.242 380.023C700.242 377.586 697.898 374.609 696.211 371.094C694.523 367.531 693.68 363.477 693.68 358.93H706.688C706.688 362.492 707.461 365.609 709.008 368.281C710.602 370.953 712.852 373.039 715.758 374.539C718.711 375.992 722.18 376.719 726.164 376.719C730.148 376.719 733.57 376.039 736.43 374.68C739.336 373.273 741.562 371.164 743.109 368.352C744.703 365.539 745.5 362 745.5 357.734C745.5 353.469 744.609 349.977 742.828 347.258C741.047 344.492 738.516 342.453 735.234 341.141C732 339.781 728.18 339.102 723.773 339.102H714.492Z" fill="white"/>
<rect x="938" width="257" height="323" rx="9" fill="#B97A57"/>
<path d="M1103.7 176.547V187.234H1029.73V179.57L1075.57 108.625H1086.19L1074.8 129.156L1044.49 176.547H1103.7ZM1089.42 108.625V211H1076.41V108.625H1089.42Z" fill="white"/>
<rect x="1217" width="367" height="323" rx="9" fill="#B97A57"/>
<path d="M1384.96 164.273L1374.55 161.602L1379.69 110.625H1432.21V122.648H1390.73L1387.63 150.492C1389.51 149.414 1391.88 148.406 1394.73 147.469C1397.64 146.531 1400.97 146.062 1404.72 146.062C1409.45 146.062 1413.7 146.883 1417.45 148.523C1421.2 150.117 1424.38 152.414 1427.01 155.414C1429.68 158.414 1431.72 162.023 1433.12 166.242C1434.53 170.461 1435.23 175.172 1435.23 180.375C1435.23 185.297 1434.55 189.82 1433.2 193.945C1431.88 198.07 1429.89 201.68 1427.22 204.773C1424.55 207.82 1421.17 210.188 1417.09 211.875C1413.06 213.562 1408.3 214.406 1402.82 214.406C1398.7 214.406 1394.78 213.844 1391.08 212.719C1387.42 211.547 1384.14 209.789 1381.23 207.445C1378.38 205.055 1376.03 202.102 1374.2 198.586C1372.42 195.023 1371.3 190.852 1370.83 186.07H1383.2C1383.77 189.914 1384.89 193.148 1386.58 195.773C1388.27 198.398 1390.47 200.391 1393.19 201.75C1395.95 203.062 1399.16 203.719 1402.82 203.719C1405.91 203.719 1408.66 203.18 1411.05 202.102C1413.44 201.023 1415.45 199.477 1417.09 197.461C1418.73 195.445 1419.98 193.008 1420.82 190.148C1421.71 187.289 1422.16 184.078 1422.16 180.516C1422.16 177.281 1421.71 174.281 1420.82 171.516C1419.93 168.75 1418.59 166.336 1416.81 164.273C1415.08 162.211 1412.95 160.617 1410.41 159.492C1407.88 158.32 1404.98 157.734 1401.7 157.734C1397.34 157.734 1394.03 158.32 1391.78 159.492C1389.58 160.664 1387.3 162.258 1384.96 164.273Z" fill="white"/>
<rect x="938" y="346" width="311" height="326" rx="9" fill="#B97A57"/>
<path d="M1111.43 456.484H1112.55V467.523H1111.43C1104.54 467.523 1098.77 468.648 1094.13 470.898C1089.49 473.102 1085.81 476.078 1083.09 479.828C1080.38 483.531 1078.41 487.703 1077.19 492.344C1076.02 496.984 1075.43 501.695 1075.43 506.477V521.523C1075.43 526.07 1075.97 530.102 1077.05 533.617C1078.12 537.086 1079.6 540.016 1081.48 542.406C1083.35 544.797 1085.46 546.602 1087.8 547.82C1090.2 549.039 1092.68 549.648 1095.26 549.648C1098.26 549.648 1100.93 549.086 1103.27 547.961C1105.62 546.789 1107.59 545.172 1109.18 543.109C1110.82 541 1112.06 538.516 1112.91 535.656C1113.75 532.797 1114.17 529.656 1114.17 526.234C1114.17 523.188 1113.8 520.258 1113.05 517.445C1112.3 514.586 1111.15 512.055 1109.6 509.852C1108.05 507.602 1106.11 505.844 1103.77 504.578C1101.47 503.266 1098.73 502.609 1095.54 502.609C1091.93 502.609 1088.55 503.5 1085.41 505.281C1082.32 507.016 1079.77 509.312 1077.75 512.172C1075.78 514.984 1074.66 518.055 1074.38 521.383L1067.48 521.312C1068.14 516.062 1069.36 511.586 1071.14 507.883C1072.97 504.133 1075.22 501.086 1077.89 498.742C1080.61 496.352 1083.63 494.617 1086.96 493.539C1090.34 492.414 1093.9 491.852 1097.65 491.852C1102.76 491.852 1107.16 492.812 1110.87 494.734C1114.57 496.656 1117.62 499.234 1120.01 502.469C1122.4 505.656 1124.16 509.266 1125.28 513.297C1126.45 517.281 1127.04 521.383 1127.04 525.602C1127.04 530.43 1126.36 534.953 1125 539.172C1123.64 543.391 1121.6 547.094 1118.88 550.281C1116.21 553.469 1112.91 555.953 1108.97 557.734C1105.03 559.516 1100.46 560.406 1095.26 560.406C1089.73 560.406 1084.9 559.281 1080.77 557.031C1076.65 554.734 1073.23 551.688 1070.51 547.891C1067.79 544.094 1065.75 539.875 1064.39 535.234C1063.03 530.594 1062.35 525.883 1062.35 521.102V514.984C1062.35 507.766 1063.08 500.688 1064.53 493.75C1065.98 486.812 1068.49 480.531 1072.05 474.906C1075.66 469.281 1080.66 464.805 1087.03 461.477C1093.41 458.148 1101.54 456.484 1111.43 456.484Z" fill="white"/>
<rect x="3" width="511" height="323" rx="9" fill="#B97A57"/>
<path d="M286.773 152.656V168.266C286.773 176.656 286.023 183.734 284.523 189.5C283.023 195.266 280.867 199.906 278.055 203.422C275.242 206.938 271.844 209.492 267.859 211.086C263.922 212.633 259.469 213.406 254.5 213.406C250.562 213.406 246.93 212.914 243.602 211.93C240.273 210.945 237.273 209.375 234.602 207.219C231.977 205.016 229.727 202.156 227.852 198.641C225.977 195.125 224.547 190.859 223.562 185.844C222.578 180.828 222.086 174.969 222.086 168.266V152.656C222.086 144.266 222.836 137.234 224.336 131.562C225.883 125.891 228.062 121.344 230.875 117.922C233.688 114.453 237.062 111.969 241 110.469C244.984 108.969 249.438 108.219 254.359 108.219C258.344 108.219 262 108.711 265.328 109.695C268.703 110.633 271.703 112.156 274.328 114.266C276.953 116.328 279.18 119.094 281.008 122.562C282.883 125.984 284.312 130.18 285.297 135.148C286.281 140.117 286.773 145.953 286.773 152.656ZM273.695 170.375V150.477C273.695 145.883 273.414 141.852 272.852 138.383C272.336 134.867 271.562 131.867 270.531 129.383C269.5 126.898 268.188 124.883 266.594 123.336C265.047 121.789 263.242 120.664 261.18 119.961C259.164 119.211 256.891 118.836 254.359 118.836C251.266 118.836 248.523 119.422 246.133 120.594C243.742 121.719 241.727 123.523 240.086 126.008C238.492 128.492 237.273 131.75 236.43 135.781C235.586 139.812 235.164 144.711 235.164 150.477V170.375C235.164 174.969 235.422 179.023 235.938 182.539C236.5 186.055 237.32 189.102 238.398 191.68C239.477 194.211 240.789 196.297 242.336 197.938C243.883 199.578 245.664 200.797 247.68 201.594C249.742 202.344 252.016 202.719 254.5 202.719C257.688 202.719 260.477 202.109 262.867 200.891C265.258 199.672 267.25 197.773 268.844 195.195C270.484 192.57 271.703 189.219 272.5 185.141C273.297 181.016 273.695 176.094 273.695 170.375Z" fill="white"/>
</svg>
